<svg xmlns="http://www.w3.org/2000/svg">
  <symbol id="plus" viewBox="0 0 24 24"><path d="M5 12h14M12 5v14"/></symbol>
  <symbol id="log-in" viewBox="0 0 24 24"><path d="m10 17 5-5-5-5M15 12H3M15 3h4a2 2 0 0 1 2 2v14a2 2 0 0 1-2 2h-4"/></symbol>
  <symbol id="copy" viewBox="0 0 24 24"><rect width="14" height="14" x="8" y="8" rx="2"/><path d="M4 16c-1.1 0-2-.9-2-2V4c0-1.1.9-2 2-2h10c1.1 0 2 .9 2 2"/></symbol>
  <symbol id="users" viewBox="0 0 24 24"><path d="M16 21v-2a4 4 0 0 0-4-4H6a4 4 0 0 0-4 4v2M9 11a4 4 0 1 0 0-8 4 4 0 0 0 0 8M22 21v-2a4 4 0 0 0-3-3.87M16 3.13a4 4 0 0 1 0 7.75"/></symbol>
  <symbol id="bot" viewBox="0 0 24 24"><rect width="18" height="10" x="3" y="11" rx="2"/><circle cx="12" cy="5" r="2"/><path d="M12 7v4M8 16h.01M16 16h.01"/></symbol>
  <symbol id="play" viewBox="0 0 24 24"><path d="m6 3 14 9-14 9z"/></symbol>
  <symbol id="building" viewBox="0 0 24 24"><path d="M6 22V4a2 2 0 0 1 2-2h8a2 2 0 0 1 2 2v18ZM6 12H4a2 2 0 0 0-2 2v8h20v-8a2 2 0 0 0-2-2h-2M10 6h4M10 10h4M10 14h4M10 18h4"/></symbol>
  <symbol id="scroll" viewBox="0 0 24 24"><path d="M8 21h12a2 2 0 0 0 2-2v-2H10v2a2 2 0 1 1-4 0V5a2 2 0 1 0-4 0v3h4M19 17V5a2 2 0 0 0-2-2H4"/><path d="M10 7h6M10 11h6"/></symbol>
  <symbol id="dice" viewBox="0 0 24 24"><rect width="18" height="18" x="3" y="3" rx="2"/><path d="M8 8h.01M16 8h.01M12 12h.01M8 16h.01M16 16h.01"/></symbol>
  <symbol id="banknote" viewBox="0 0 24 24"><rect width="20" height="12" x="2" y="6" rx="2"/><circle cx="12" cy="12" r="2"/><path d="M6 12h.01M18 12h.01"/></symbol>
  <symbol id="hammer" viewBox="0 0 24 24"><path d="m15 12-8.5 8.5a2.12 2.12 0 0 1-3-3L12 9M17.64 15 22 10.64M20.91 11.7l-8.6-8.6a1 1 0 0 0-1.4 0L9.5 4.5a1 1 0 0 0 0 1.4l8.6 8.6M3 3l3 3"/></symbol>
  <symbol id="landmark" viewBox="0 0 24 24"><path d="M3 22h18M6 18v-7M10 18v-7M14 18v-7M18 18v-7M12 2l9 5H3z"/></symbol>
  <symbol id="x" viewBox="0 0 24 24"><path d="M18 6 6 18M6 6l12 12"/></symbol>
  <symbol id="trash" viewBox="0 0 24 24"><path d="M3 6h18M8 6V4h8v2M19 6l-1 14H6L5 6M10 11v5M14 11v5"/></symbol>
  <symbol id="home" viewBox="0 0 24 24"><path d="m3 11 9-8 9 8M5 10v11h14V10M9 21v-7h6v7"/></symbol>
  <symbol id="train" viewBox="0 0 24 24"><rect width="16" height="16" x="4" y="3" rx="2"/><path d="M4 11h16M8 19l-2 3M16 19l2 3M8 15h.01M16 15h.01M8 7h8"/></symbol>
  <symbol id="zap" viewBox="0 0 24 24"><path d="M13 2 3 14h9l-1 8 10-12h-9z"/></symbol>
  <symbol id="help" viewBox="0 0 24 24"><circle cx="12" cy="12" r="10"/><path d="M9.1 9a3 3 0 1 1 5.8 1c0 2-3 2-3 4M12 18h.01"/></symbol>
  <symbol id="briefcase" viewBox="0 0 24 24"><rect width="20" height="14" x="2" y="7" rx="2"/><path d="M8 7V5a2 2 0 0 1 2-2h4a2 2 0 0 1 2 2v2M2 12h20"/></symbol>
  <symbol id="trophy" viewBox="0 0 24 24"><path d="M8 21h8M12 17v4M7 4h10v5a5 5 0 0 1-10 0zM7 6H4v2a4 4 0 0 0 4 4M17 6h3v2a4 4 0 0 1-4 4"/></symbol>
  <symbol id="zoom-in" viewBox="0 0 24 24"><circle cx="11" cy="11" r="8"/><path d="m21 21-4.35-4.35M11 8v6M8 11h6"/></symbol>
  <symbol id="zoom-out" viewBox="0 0 24 24"><circle cx="11" cy="11" r="8"/><path d="m21 21-4.35-4.35M8 11h6"/></symbol>
</svg>
